<svg xmlns="http://www.w3.org/2000/svg" width="780" height="260" viewBox="0 0 780 260" role="img" aria-labelledby="title desc">
  <title id="title">Visitor Trend</title>
  <desc id="desc">Daily GitHub repository traffic trend for hyunolike over the last 17 recorded days.</desc>
  <style>
    .card { fill: #0d1117; stroke: #30363d; }
    .heading { font: 700 18px -apple-system, BlinkMacSystemFont, "Segoe UI", "Apple SD Gothic Neo", "Noto Sans KR", "Malgun Gothic", sans-serif; fill: #e6edf3; }
    .subtle { font: 400 12px -apple-system, BlinkMacSystemFont, "Segoe UI", "Apple SD Gothic Neo", "Noto Sans KR", "Malgun Gothic", sans-serif; fill: #8b949e; }
    .axis-label { font: 500 11px -apple-system, BlinkMacSystemFont, "Segoe UI", "Apple SD Gothic Neo", "Noto Sans KR", "Malgun Gothic", sans-serif; fill: #8b949e; }
    .peak-label { font: 700 12px -apple-system, BlinkMacSystemFont, "Segoe UI", "Apple SD Gothic Neo", "Noto Sans KR", "Malgun Gothic", sans-serif; fill: #e6edf3; }
    .legend-label { font: 500 12px -apple-system, BlinkMacSystemFont, "Segoe UI", "Apple SD Gothic Neo", "Noto Sans KR", "Malgun Gothic", sans-serif; fill: #c9d1d9; }
    .empty { font: 600 15px -apple-system, BlinkMacSystemFont, "Segoe UI", "Apple SD Gothic Neo", "Noto Sans KR", "Malgun Gothic", sans-serif; fill: #8b949e; }
    .axis { fill: none; stroke: #8b949e; stroke-width: 1.6; stroke-linecap: round; }
    .grid { fill: none; stroke: #30363d; stroke-width: 1.2; stroke-linecap: round; }
    .line-views { fill: none; stroke: #4dabf7; stroke-width: 1.9; stroke-linecap: round; stroke-linejoin: round; }
    .line-uniques { fill: none; stroke: #69db7c; stroke-width: 1.9; stroke-linecap: round; stroke-linejoin: round; }
    .dot-views { fill: #4dabf7; }
    .dot-uniques { fill: #69db7c; }
    @media (prefers-color-scheme: light) {
      .card { fill: #ffffff; stroke: #d0d7de; }
      .heading, .peak-label { fill: #1f2328; }
      .subtle, .axis-label { fill: #57606a; }
      .legend-label { fill: #24292f; }
      .empty { fill: #57606a; }
      .axis { stroke: #1e1e1e; }
      .grid { stroke: #d0d7de; }
      .line-views { stroke: #1971c2; }
      .line-uniques { stroke: #2f9e44; }
      .dot-views { fill: #1971c2; }
      .dot-uniques { fill: #2f9e44; }
    }
  </style>
  <rect class="card" x="0.5" y="0.5" width="779" height="259" rx="12"/>
  <text class="heading" x="28" y="36">Visitor Trend</text>
  <text class="subtle" x="28" y="56">Daily traffic across all repositories</text>
  <text class="subtle" x="752" y="36" text-anchor="end">Updated 2026.08.12</text>
  <path class="line-views" d="M519.3 61.7 Q530.4 61.6 541.3 62.4"/>
  <path class="line-views" d="M519.6 61.2 Q530.4 61.2 542.2 62.4"/>
  <text class="legend-label" x="548" y="66">Views</text>
  <path class="line-uniques" d="M610.9 62.5 Q622.9 62.4 632.4 62.8"/>
  <path class="line-uniques" d="M609.5 61.5 Q620.5 60.7 632.9 61.6"/>
  <text class="legend-label" x="638" y="66">Unique visitors</text>
  <path class="grid" d="M58.4 95.8 Q103.2 95.4 144.5 93.5 Q189.1 92.6 232 98.4 Q272.1 99.4 319 97.5 Q360.6 99.7 403.6 97.5 Q447.3 93.7 489.9 95.8 Q534.2 96 573.9 98.3 Q616 94.6 661.9 96.7 Q706.7 96.1 748.8 98"/>
  <path class="grid" d="M61.7 96.7 Q106.7 92.2 144.5 94.2 Q189.7 90.9 231.6 94.8 Q275.8 97.7 315.7 97.5 Q357.4 100 403 97.9 Q450.2 101.3 492.3 97.5 Q537.3 99.8 577.3 97.8 Q615.9 97.7 659.5 94.3 Q705.9 94 746.9 97.3"/>
  <path class="axis" d="M57.5 205.9 Q104.6 209.3 148 206 Q191.2 209.5 230.2 206.6 Q271.6 202.4 320.2 204.7 Q362.8 209.9 403.7 208.1 Q447.2 204 487.5 205.3 Q528.2 208.1 573.6 205.4 Q616.3 207 661.4 205.2 Q708.9 205.6 749.3 206.8"/>
  <path class="axis" d="M58.1 204.7 Q103.7 206.8 147.2 205.8 Q189.1 205.6 231 208.6 Q274.1 208 317.6 204.6 Q363.6 208.6 402.7 207.5 Q446.9 206.6 489 206.2 Q531.2 207 578.5 204.4 Q624.1 203.9 664.6 206.2 Q705 208.5 747.3 207.4"/>
  <path class="axis" d="M58.9 97.7 Q55.3 121.6 58.7 152.1 Q62.1 182.2 62.6 207.3"/>
  <path class="axis" d="M62.5 94 Q62.3 119.9 57.9 149 Q59.2 174.5 60.8 203.8"/>
  <path class="line-uniques" d="M61.6 208.5 Q85.8 202.9 103.7 196.8 Q127.7 196 147.5 197.3 Q164.9 196.2 186.5 200 Q205 204.9 230.5 207.8 Q255.8 206.9 276.1 205 Q295.5 198.8 317.2 199.4 Q339.5 202.4 359.9 199.6 Q383.3 202.2 404.6 199.5 Q426.7 203.9 448.3 207.8 Q466.8 200.6 487.9 199.4 Q511.8 205 534.7 206.8 Q553.9 205.3 577 197.3 Q598.7 205.3 619.9 207 Q640.8 190.1 660.9 171.1 Q682.3 181.8 702.4 188.5 Q726.9 196.1 748 199.6"/>
  <path class="line-uniques" d="M59.9 206.1 Q80 204.7 104.2 199.1 Q121.3 195.5 143.5 196.4 Q164.8 199.8 190.7 199.7 Q210.8 204.7 229.9 207.8 Q250.7 208.4 273.3 204.7 Q300 199.5 319.9 197.9 Q339.1 198.7 362 198.3 Q385.6 198.2 405.7 195.2 Q426.9 198.3 445.6 203.4 Q468.6 201.6 491.7 198 Q513.9 202.2 534.9 204.5 Q557 199.5 575.6 199.2 Q597.4 203.7 621.1 208.2 Q639.7 187.7 660.5 171.9 Q681.1 182.8 707.2 191.7 Q725.9 196.6 745.5 198"/>
  <path class="line-views" d="M58.8 207.1 Q78.4 206.1 101.3 198.3 Q126.2 172.7 146.9 148.2 Q167 168.6 190 188 Q209 197.9 231.5 207.3 Q252.2 204.3 273.2 203.8 Q291.4 197.1 316.7 197.5 Q342.6 195.8 362.9 195.7 Q384.3 195.4 404.5 196.3 Q429 203.9 447.1 207.3 Q471 197.9 492.2 182.6 Q513 197.5 535.6 205.6 Q544.6 175.3 554.2 149.5 Q567.4 119.4 575.3 94.3 Q588.9 126.4 596.7 152.7 Q604.2 175.5 617.6 204.1 Q640.4 170.6 661.9 131.2 Q684.6 148.7 703.5 171.6 Q727.6 187.8 748.3 199.8"/>
  <path class="line-views" d="M59.6 204.6 Q82.4 198.5 104 197.2 Q124 172.8 145.9 147.5 Q166.1 170.6 189.4 191.7 Q210.2 199.6 230.2 207.9 Q251.6 204.4 277.1 206 Q299.2 205.1 319.9 198.5 Q338.8 200.8 363.6 199.7 Q385.9 199.1 401.7 199.3 Q427 202.9 448.5 207 Q471.3 192.8 487.5 183.2 Q513.4 193.3 534.8 204.9 Q542.6 175.6 554.8 151 Q568.5 126.1 578.6 96.4 Q585.8 121.2 597 150.7 Q607.8 178.6 618.8 207.5 Q637.9 169.5 662.8 130.4 Q687.9 151.3 705.8 173.5 Q727.3 183.2 747.1 195.1"/>
  <circle class="dot-views" cx="576" cy="96" r="3.5"/>
  <text class="peak-label" x="576" y="90" text-anchor="middle">13</text>
  <text class="axis-label" x="60" y="228" text-anchor="start">07.26</text>
  <text class="axis-label" x="404" y="228" text-anchor="middle">08.03</text>
  <text class="axis-label" x="748" y="228" text-anchor="end">08.11</text>
  <text class="axis-label" x="50" y="100" text-anchor="end">13</text>
  <text class="axis-label" x="50" y="210" text-anchor="end">0</text>
</svg>
