<svg xmlns="http://www.w3.org/2000/svg" width="780" height="260" viewBox="0 0 780 260" role="img" aria-labelledby="title desc">
  <title id="title">Visitor Trend</title>
  <desc id="desc">Daily GitHub repository traffic trend for hyunolike over the last 30 recorded days.</desc>
  <style>
    .card { fill: #0d1117; stroke: #30363d; }
    .heading { font: 700 18px -apple-system, BlinkMacSystemFont, "Segoe UI", "Apple SD Gothic Neo", "Noto Sans KR", "Malgun Gothic", sans-serif; fill: #e6edf3; }
    .subtle { font: 400 12px -apple-system, BlinkMacSystemFont, "Segoe UI", "Apple SD Gothic Neo", "Noto Sans KR", "Malgun Gothic", sans-serif; fill: #8b949e; }
    .axis-label { font: 500 11px -apple-system, BlinkMacSystemFont, "Segoe UI", "Apple SD Gothic Neo", "Noto Sans KR", "Malgun Gothic", sans-serif; fill: #8b949e; }
    .peak-label { font: 700 12px -apple-system, BlinkMacSystemFont, "Segoe UI", "Apple SD Gothic Neo", "Noto Sans KR", "Malgun Gothic", sans-serif; fill: #e6edf3; }
    .legend-label { font: 500 12px -apple-system, BlinkMacSystemFont, "Segoe UI", "Apple SD Gothic Neo", "Noto Sans KR", "Malgun Gothic", sans-serif; fill: #c9d1d9; }
    .empty { font: 600 15px -apple-system, BlinkMacSystemFont, "Segoe UI", "Apple SD Gothic Neo", "Noto Sans KR", "Malgun Gothic", sans-serif; fill: #8b949e; }
    .axis { fill: none; stroke: #8b949e; stroke-width: 1.6; stroke-linecap: round; }
    .grid { fill: none; stroke: #30363d; stroke-width: 1.2; stroke-linecap: round; }
    .line-views { fill: none; stroke: #4dabf7; stroke-width: 1.9; stroke-linecap: round; stroke-linejoin: round; }
    .line-uniques { fill: none; stroke: #69db7c; stroke-width: 1.9; stroke-linecap: round; stroke-linejoin: round; }
    .dot-views { fill: #4dabf7; }
    .dot-uniques { fill: #69db7c; }
    @media (prefers-color-scheme: light) {
      .card { fill: #ffffff; stroke: #d0d7de; }
      .heading, .peak-label { fill: #1f2328; }
      .subtle, .axis-label { fill: #57606a; }
      .legend-label { fill: #24292f; }
      .empty { fill: #57606a; }
      .axis { stroke: #1e1e1e; }
      .grid { stroke: #d0d7de; }
      .line-views { stroke: #1971c2; }
      .line-uniques { stroke: #2f9e44; }
      .dot-views { fill: #1971c2; }
      .dot-uniques { fill: #2f9e44; }
    }
  </style>
  <rect class="card" x="0.5" y="0.5" width="779" height="259" rx="12"/>
  <text class="heading" x="28" y="36">Visitor Trend</text>
  <text class="subtle" x="28" y="56">Daily traffic across all repositories</text>
  <text class="subtle" x="752" y="36" text-anchor="end">Updated 2026.08.27</text>
  <path class="line-views" d="M520.1 62.9 Q530.3 62.5 542.6 62.1"/>
  <path class="line-views" d="M520.6 61.8 Q532.4 61.1 542.2 62.9"/>
  <text class="legend-label" x="548" y="66">Views</text>
  <path class="line-uniques" d="M609.4 61.8 Q619.8 61.7 631.6 61.6"/>
  <path class="line-uniques" d="M609.3 61.9 Q621.6 61 632.3 62.7"/>
  <text class="legend-label" x="638" y="66">Unique visitors</text>
  <path class="grid" d="M58.4 95.8 Q103.2 95.4 144.5 93.5 Q189.1 92.6 232 98.4 Q272.1 99.4 319 97.5 Q360.6 99.7 403.6 97.5 Q447.3 93.7 489.9 95.8 Q534.2 96 573.9 98.3 Q616 94.6 661.9 96.7 Q706.7 96.1 748.8 98"/>
  <path class="grid" d="M61.7 96.7 Q106.7 92.2 144.5 94.2 Q189.7 90.9 231.6 94.8 Q275.8 97.7 315.7 97.5 Q357.4 100 403 97.9 Q450.2 101.3 492.3 97.5 Q537.3 99.8 577.3 97.8 Q615.9 97.7 659.5 94.3 Q705.9 94 746.9 97.3"/>
  <path class="axis" d="M57.5 205.9 Q104.6 209.3 148 206 Q191.2 209.5 230.2 206.6 Q271.6 202.4 320.2 204.7 Q362.8 209.9 403.7 208.1 Q447.2 204 487.5 205.3 Q528.2 208.1 573.6 205.4 Q616.3 207 661.4 205.2 Q708.9 205.6 749.3 206.8"/>
  <path class="axis" d="M58.1 204.7 Q103.7 206.8 147.2 205.8 Q189.1 205.6 231 208.6 Q274.1 208 317.6 204.6 Q363.6 208.6 402.7 207.5 Q446.9 206.6 489 206.2 Q531.2 207 578.5 204.4 Q624.1 203.9 664.6 206.2 Q705 208.5 747.3 207.4"/>
  <path class="axis" d="M58.9 97.7 Q55.3 121.6 58.7 152.1 Q62.1 182.2 62.6 207.3"/>
  <path class="axis" d="M62.5 94 Q62.3 119.9 57.9 149 Q59.2 174.5 60.8 203.8"/>
  <path class="line-uniques" d="M61.6 203.8 Q73.4 203.2 84.4 200.5 Q97.3 205.1 109 205.8 Q120.6 209.2 128.7 208.4 Q140.9 205.8 153.4 203 Q168.2 203.8 179.7 200.2 Q187.1 200.1 201.5 203 Q215.7 208.6 225 208 Q234.8 208.1 250.4 203.2 Q260.2 203.6 274.8 207.8 Q287.7 205.9 295.2 203.1 Q310.3 206 322.7 206.8 Q336.6 193.4 345.7 186.6 Q355.6 188.4 369.3 197.4 Q382.6 199.4 391.1 200.2 Q404.8 195.9 413.3 195.8 Q425.9 201.9 439.6 203.3 Q455.6 207.9 465.6 206.2 Q474.9 205.4 488.5 205.3 Q501.9 208.4 509.3 204.2 Q517.1 206.2 532 206.7 Q543.9 206.3 560 201.6 Q568 198 581.1 198.8 Q591.4 205.2 606.3 208.1 Q618.7 208.9 630.1 207.9 Q640.8 209.2 653.3 206.2 Q667.9 200.8 675.9 199.1 Q686.6 203.8 700.9 207.4 Q713.6 204.6 722.9 198.8 Q736.7 202.5 748.2 208.2"/>
  <path class="line-uniques" d="M59.9 201.9 Q71.9 200.6 84.2 201.9 Q92.8 199.5 108.7 204.3 Q122.4 204.3 130.5 205.9 Q142.9 202.1 154.1 199.5 Q168.6 202.8 176.6 202 Q190.7 205.2 202 202.4 Q212.5 208.2 224.8 207.1 Q236.2 202.3 248.1 202 Q263.9 202.2 274.4 207.5 Q289.2 206.7 298.2 200.1 Q306.5 200.8 320.5 207.3 Q332.3 198.9 342.8 184.7 Q356.9 187.9 367.1 196.4 Q382.3 200 394 199.4 Q404.6 195.3 416.3 195.2 Q429.5 198.4 439.7 202.5 Q452.5 206.3 465.6 207.9 Q478.2 210.4 489.6 205.6 Q497.6 207.8 510.4 204.5 Q525.1 204.4 533.8 204.3 Q548.2 205 557.4 202.9 Q572.6 204.1 580.5 199.3 Q589.8 205.8 605.5 207.3 Q618.7 207.9 627.9 205.5 Q637.1 210.5 653.4 208.3 Q667 204.5 675.6 203.6 Q689.3 204.6 702 205.6 Q716.2 201.7 723.2 196.8 Q734.4 201.1 746.8 206.2"/>
  <path class="line-views" d="M59.8 174 Q70.2 183.6 84.6 196.9 Q99.8 200.5 108.3 207.3 Q117.5 203.3 130.3 203.6 Q141.6 202.9 155.3 199.5 Q163.5 199.2 177.9 201.5 Q187.4 200.3 201.2 201.9 Q211.7 207.4 226.3 205.9 Q238.8 197.7 248.3 189.9 Q259.9 198.1 274.1 208.1 Q285.7 173.2 295.2 145 Q310.2 177.7 323.3 205.7 Q337.3 185.7 346.1 162.8 Q358.5 171.2 370.8 185.2 Q379.8 190.3 393.8 200.6 Q402.4 173.2 414.3 146.9 Q430.8 121.3 440.9 97.8 Q443.6 124.5 450 149.4 Q456.2 177.8 463.2 205.7 Q477.3 207.4 484.9 206.4 Q501.2 202.4 513.3 205.6 Q525.2 202.1 535.1 205.2 Q546.1 190.2 556.4 176.6 Q571 178.3 580.1 178.3 Q593.8 193.7 605.8 205.2 Q618.2 203.7 628.2 204 Q639.6 204.8 653.6 207.1 Q666.5 206.4 675.9 200 Q690.8 202.3 702.8 207.3 Q715 202.1 725.4 198.6 Q740.6 201.9 750.4 205.6"/>
  <path class="line-views" d="M57.4 170.3 Q71.3 183 83 198.4 Q94.5 199.5 106 206.2 Q118.2 208.4 133.1 207.5 Q145.4 200.4 154 198.8 Q170.2 200.3 180.7 201.8 Q194.3 205 203.9 202.6 Q213.6 201.8 224.5 206.1 Q238.5 202.6 249.2 193.4 Q262.9 203.8 271.5 207.7 Q284.8 180 297.1 146.2 Q311.8 177.6 320 208.2 Q332.8 182.5 347 160.4 Q359.7 172.1 367.3 186.6 Q376.2 190.5 392.2 199.8 Q403.4 172.1 416.7 148.5 Q425 122.1 437.6 94.6 Q445.2 126 450.3 151.1 Q461 181 465.1 204.3 Q473.3 209.5 486 208.1 Q501.5 204.6 512.6 206.1 Q527.9 205.7 536.1 206.1 Q543 193.2 556.1 174.9 Q571.1 173.6 581.3 175.5 Q591.2 192.8 604 208.1 Q615.8 206 629 206.3 Q638.7 209 652.6 206.8 Q660.8 201.1 675.4 200.2 Q686.4 204.6 699.5 207.5 Q708.7 204.6 722.5 196.1 Q736.8 199.4 746.5 208.5"/>
  <circle class="dot-views" cx="439.6" cy="96" r="3.5"/>
  <text class="peak-label" x="439.6" y="90" text-anchor="middle">23</text>
  <text class="axis-label" x="60" y="228" text-anchor="start">07.28</text>
  <text class="axis-label" x="392.1" y="228" text-anchor="middle">08.11</text>
  <text class="axis-label" x="748" y="228" text-anchor="end">08.26</text>
  <text class="axis-label" x="50" y="100" text-anchor="end">23</text>
  <text class="axis-label" x="50" y="210" text-anchor="end">0</text>
</svg>
