<svg xmlns="http://www.w3.org/2000/svg" width="780" height="260" viewBox="0 0 780 260" role="img" aria-labelledby="title desc">
  <title id="title">Visitor Trend</title>
  <desc id="desc">Daily GitHub repository traffic trend for hyunolike over the last 30 recorded days.</desc>
  <style>
    .card { fill: #0d1117; stroke: #30363d; }
    .heading { font: 700 18px -apple-system, BlinkMacSystemFont, "Segoe UI", "Apple SD Gothic Neo", "Noto Sans KR", "Malgun Gothic", sans-serif; fill: #e6edf3; }
    .subtle { font: 400 12px -apple-system, BlinkMacSystemFont, "Segoe UI", "Apple SD Gothic Neo", "Noto Sans KR", "Malgun Gothic", sans-serif; fill: #8b949e; }
    .axis-label { font: 500 11px -apple-system, BlinkMacSystemFont, "Segoe UI", "Apple SD Gothic Neo", "Noto Sans KR", "Malgun Gothic", sans-serif; fill: #8b949e; }
    .peak-label { font: 700 12px -apple-system, BlinkMacSystemFont, "Segoe UI", "Apple SD Gothic Neo", "Noto Sans KR", "Malgun Gothic", sans-serif; fill: #e6edf3; }
    .legend-label { font: 500 12px -apple-system, BlinkMacSystemFont, "Segoe UI", "Apple SD Gothic Neo", "Noto Sans KR", "Malgun Gothic", sans-serif; fill: #c9d1d9; }
    .empty { font: 600 15px -apple-system, BlinkMacSystemFont, "Segoe UI", "Apple SD Gothic Neo", "Noto Sans KR", "Malgun Gothic", sans-serif; fill: #8b949e; }
    .axis { fill: none; stroke: #8b949e; stroke-width: 1.6; stroke-linecap: round; }
    .grid { fill: none; stroke: #30363d; stroke-width: 1.2; stroke-linecap: round; }
    .line-views { fill: none; stroke: #4dabf7; stroke-width: 1.9; stroke-linecap: round; stroke-linejoin: round; }
    .line-uniques { fill: none; stroke: #69db7c; stroke-width: 1.9; stroke-linecap: round; stroke-linejoin: round; }
    .dot-views { fill: #4dabf7; }
    .dot-uniques { fill: #69db7c; }
    @media (prefers-color-scheme: light) {
      .card { fill: #ffffff; stroke: #d0d7de; }
      .heading, .peak-label { fill: #1f2328; }
      .subtle, .axis-label { fill: #57606a; }
      .legend-label { fill: #24292f; }
      .empty { fill: #57606a; }
      .axis { stroke: #1e1e1e; }
      .grid { stroke: #d0d7de; }
      .line-views { stroke: #1971c2; }
      .line-uniques { stroke: #2f9e44; }
      .dot-views { fill: #1971c2; }
      .dot-uniques { fill: #2f9e44; }
    }
  </style>
  <rect class="card" x="0.5" y="0.5" width="779" height="259" rx="12"/>
  <text class="heading" x="28" y="36">Visitor Trend</text>
  <text class="subtle" x="28" y="56">Daily traffic across all repositories</text>
  <text class="subtle" x="752" y="36" text-anchor="end">Updated 2026.09.05</text>
  <path class="line-views" d="M520.1 62.9 Q530.3 62.5 542.6 62.1"/>
  <path class="line-views" d="M520.6 61.8 Q532.4 61.1 542.2 62.9"/>
  <text class="legend-label" x="548" y="66">Views</text>
  <path class="line-uniques" d="M609.4 61.8 Q619.8 61.7 631.6 61.6"/>
  <path class="line-uniques" d="M609.3 61.9 Q621.6 61 632.3 62.7"/>
  <text class="legend-label" x="638" y="66">Unique visitors</text>
  <path class="grid" d="M58.4 95.8 Q103.2 95.4 144.5 93.5 Q189.1 92.6 232 98.4 Q272.1 99.4 319 97.5 Q360.6 99.7 403.6 97.5 Q447.3 93.7 489.9 95.8 Q534.2 96 573.9 98.3 Q616 94.6 661.9 96.7 Q706.7 96.1 748.8 98"/>
  <path class="grid" d="M61.7 96.7 Q106.7 92.2 144.5 94.2 Q189.7 90.9 231.6 94.8 Q275.8 97.7 315.7 97.5 Q357.4 100 403 97.9 Q450.2 101.3 492.3 97.5 Q537.3 99.8 577.3 97.8 Q615.9 97.7 659.5 94.3 Q705.9 94 746.9 97.3"/>
  <path class="axis" d="M57.5 205.9 Q104.6 209.3 148 206 Q191.2 209.5 230.2 206.6 Q271.6 202.4 320.2 204.7 Q362.8 209.9 403.7 208.1 Q447.2 204 487.5 205.3 Q528.2 208.1 573.6 205.4 Q616.3 207 661.4 205.2 Q708.9 205.6 749.3 206.8"/>
  <path class="axis" d="M58.1 204.7 Q103.7 206.8 147.2 205.8 Q189.1 205.6 231 208.6 Q274.1 208 317.6 204.6 Q363.6 208.6 402.7 207.5 Q446.9 206.6 489 206.2 Q531.2 207 578.5 204.4 Q624.1 203.9 664.6 206.2 Q705 208.5 747.3 207.4"/>
  <path class="axis" d="M58.9 97.7 Q55.3 121.6 58.7 152.1 Q62.1 182.2 62.6 207.3"/>
  <path class="axis" d="M62.5 94 Q62.3 119.9 57.9 149 Q59.2 174.5 60.8 203.8"/>
  <path class="line-uniques" d="M61.6 208.5 Q73.4 205.5 84.4 200.5 Q97.3 205.1 109 205.8 Q120.6 199.6 128.7 189.3 Q140.9 193.9 153.4 198.2 Q168.2 201.4 179.7 200.2 Q187.1 197.7 201.5 198.3 Q215.7 203.8 225 203.2 Q234.8 208.1 250.4 207.9 Q260.2 206 274.8 207.8 Q287.7 208.3 295.2 207.9 Q310.3 208.4 322.7 206.8 Q336.6 200.6 345.7 200.9 Q355.6 198 369.3 202.2 Q382.6 204.2 391.1 205 Q404.8 203.1 413.3 205.4 Q425.9 209.1 439.6 208.1 Q455.6 207.9 465.6 201.4 Q474.9 203 488.5 205.3 Q501.9 203.6 509.3 194.6 Q517.1 201.4 532 206.7 Q543.9 208.7 560 206.4 Q568 202.8 581.1 203.6 Q591.4 207.6 606.3 208.1 Q618.7 208.9 630.1 207.9 Q640.8 209.2 653.3 206.2 Q667.9 200.8 675.9 199.1 Q686.6 199.1 700.9 197.8 Q713.6 202.2 722.9 203.5 Q736.7 204.9 748.2 208.2"/>
  <path class="line-uniques" d="M59.9 206.7 Q71.9 203 84.2 201.9 Q92.8 199.5 108.7 204.3 Q122.4 194.7 130.5 186.8 Q142.9 190.1 154.1 194.7 Q168.6 200.4 176.6 202 Q190.7 202.8 202 197.7 Q212.5 203.4 224.8 202.3 Q236.2 202.3 248.1 206.8 Q263.9 204.6 274.4 207.5 Q289.2 209.1 298.2 204.9 Q306.5 203.2 320.5 207.3 Q332.3 206.1 342.8 199 Q356.9 197.5 367.1 201.2 Q382.3 204.8 394 204.2 Q404.6 202.5 416.3 204.8 Q429.5 205.6 439.7 207.3 Q452.5 206.3 465.6 203.2 Q478.2 208 489.6 205.6 Q497.6 203 510.4 195 Q525.1 199.6 533.8 204.3 Q548.2 207.4 557.4 207.7 Q572.6 208.9 580.5 204.1 Q589.8 208.2 605.5 207.3 Q618.7 207.9 627.9 205.5 Q637.1 210.5 653.4 208.3 Q667 204.5 675.6 203.6 Q689.3 199.8 702 196 Q716.2 199.3 723.2 201.6 Q734.4 203.4 746.8 206.2"/>
  <path class="line-views" d="M59.8 207.5 Q70.2 174.1 84.6 144.3 Q99.8 174.2 108.3 207.3 Q117.5 181.8 130.3 160.5 Q141.6 174.2 155.3 185.2 Q163.5 192 177.9 201.5 Q187.4 174 201.2 149.3 Q211.7 126.1 226.3 95.9 Q232.8 122.3 236.4 149.2 Q242.1 177.8 250.3 208.1 Q262 204.3 271.4 207.2 Q286.4 208.8 299.5 205.7 Q313.6 207.2 322.4 205.8 Q334.8 187.9 347.1 175.7 Q356.1 173.6 370 176.7 Q378.7 190 390.5 204.3 Q407.1 205 417.1 207.8 Q425.8 207 438.2 204.4 Q450.3 203 463.2 200.9 Q477.3 205 484.9 206.4 Q501.2 197.6 513.3 196 Q525.2 197.3 535.1 205.2 Q546.1 204.5 556.4 205.3 Q571 207 580.1 207 Q593.8 208 605.8 205.2 Q618.2 203.7 628.2 204 Q639.6 204.8 653.6 207.1 Q666.5 206.4 675.9 200 Q690.8 164 702.8 130.8 Q715 166.3 725.4 203.4 Q740.6 204.3 750.4 205.6"/>
  <path class="line-views" d="M57.4 203.7 Q71.3 173.4 83 145.8 Q94.5 173.2 106 206.2 Q118.2 186.9 133.1 164.4 Q145.4 171.7 154 184.4 Q170.2 193.1 180.7 201.8 Q194.3 178.7 203.9 150 Q213.6 120.5 224.5 96.1 Q232.6 127.2 237.4 152.7 Q245.1 183.4 247.7 207.7 Q261.1 211.1 273.4 208.4 Q288.1 208.7 296.3 208.2 Q309 204 323.3 203.5 Q336 188.8 343.6 177 Q352.5 173.8 368.5 175.9 Q379.6 188.8 393 205.9 Q401.3 205.8 413.8 204.6 Q427.4 208.5 438.4 206.1 Q455.1 206.1 465.1 199.5 Q473.3 207.1 486 208.1 Q501.5 199.8 512.6 196.6 Q527.9 200.9 536.1 206.1 Q543 207.6 556.1 203.6 Q571.1 202.2 581.3 204.2 Q591.2 207.1 604 208.1 Q615.8 206 629 206.3 Q638.7 209 652.6 206.8 Q660.8 201.1 675.4 200.2 Q686.4 166.3 699.5 131 Q708.7 168.8 722.5 200.8 Q736.8 201.8 746.5 208.5"/>
  <circle class="dot-views" cx="226.1" cy="96" r="3.5"/>
  <text class="peak-label" x="226.1" y="90" text-anchor="middle">23</text>
  <text class="axis-label" x="60" y="228" text-anchor="start">08.06</text>
  <text class="axis-label" x="392.1" y="228" text-anchor="middle">08.20</text>
  <text class="axis-label" x="748" y="228" text-anchor="end">09.04</text>
  <text class="axis-label" x="50" y="100" text-anchor="end">23</text>
  <text class="axis-label" x="50" y="210" text-anchor="end">0</text>
</svg>
